<?xml version="1.0" encoding="UTF-8"?><svg id="a" xmlns="http://www.w3.org/2000/svg" xmlns:xlink="http://www.w3.org/1999/xlink" viewBox="0 0 1080 1080"><defs><style>.b{fill:none;stroke-width:7px;}.b,.c{stroke:#636622;stroke-miterlimit:10;}.d{fill:#053f13;}.e{fill:#118e32;}.f{letter-spacing:0em;}.g{opacity:.58;}.h{letter-spacing:0em;}.c{fill:#636622;stroke-width:6px;}.i,.j{fill:#0a541f;}.j{font-family:CooperBlack, Cooper Black;font-size:188.1px;}</style></defs><image class="g" transform="translate(-147.64 -309.33) scale(1.55 1.75)" xlink:href="../Downloads/pngwing.com - 2022-04-01T144351.643.png"/><g><g><ellipse class="e" cx="585.13" cy="409.36" rx="22.98" ry="20.71"/><polyline class="b" points="500.79 429.3 508.28 456.28 554.03 464.53"/><ellipse class="i" cx="530.32" cy="445.6" rx="18.09" ry="16.3"/><ellipse class="i" cx="465.22" cy="393.14" rx="24.96" ry="22.49"/><ellipse class="e" cx="495.07" cy="416.01" rx="24.96" ry="22.49"/><ellipse class="i" cx="527.41" cy="402.33" rx="15.18" ry="13.68"/><ellipse class="d" cx="498.5" cy="393.14" rx="15.6" ry="14.05"/><ellipse class="d" cx="488.21" cy="440.98" rx="22.98" ry="20.71"/><ellipse class="i" cx="536.95" cy="379.39" rx="28.39" ry="25.58"/><ellipse class="i" cx="565.51" cy="370.65" rx="24.96" ry="22.49"/><ellipse class="i" cx="550.18" cy="407.01" rx="15.18" ry="13.68"/><ellipse class="e" cx="549.9" cy="379.39" rx="15.6" ry="14.05"/><ellipse class="i" cx="505.89" cy="365.33" rx="22.98" ry="20.71"/><polygon class="c" points="546.85 498.29 553.92 498.29 551.66 429.3 546.85 429.3 546.85 498.29"/><ellipse class="d" cx="542.59" cy="418.49" rx="24.95" ry="22.5" transform="translate(-44.43 65.02) rotate(-6.59)"/><line class="b" x1="549.79" y1="466.25" x2="567.01" y2="449.22"/><ellipse class="i" cx="567.64" cy="435.9" rx="16.85" ry="15.18"/></g><text class="j" transform="translate(142.68 601.1) scale(.85 1)"><tspan x="0" y="0">elo</tspan><tspan class="h" x="281.69" y="0">q</tspan><tspan class="f" x="402.1" y="0">uence</tspan></text></g></svg>